<svg width="156" height="33" viewBox="0 0 156 33" fill="none" xmlns="http://www.w3.org/2000/svg">
<path d="M33.9409 28.5285V24.4157H44.4509C46.2832 24.4157 47.2858 24.2429 47.8735 23.8627C48.5996 23.4134 49.0144 22.653 49.0144 21.7544C49.0144 20.683 48.4613 19.7499 47.5278 19.3006C47.0438 19.0241 46.1449 18.8858 45.0386 18.8858H40.7862C38.0205 18.8858 36.2227 18.402 35.0127 17.3651C33.6298 16.1555 32.8346 14.2891 32.8346 12.3191C32.8346 9.34686 34.4249 6.78931 36.845 5.95983C37.8822 5.57966 39.0922 5.47597 41.7888 5.47597H53.1977V9.58879H42.8951C40.7171 9.62335 40.5442 9.62335 39.8182 9.79615C38.8502 10.0381 38.2625 10.9367 38.2625 12.1463C38.2625 13.1832 38.7465 14.0127 39.5762 14.3928C40.2676 14.7039 40.8208 14.773 42.4803 14.773H46.1795C49.5676 14.773 51.3999 15.2914 52.7482 16.6739C53.7854 17.7107 54.4769 19.7499 54.4769 21.7199C54.4769 24.2083 53.336 26.4894 51.5382 27.5953C50.3973 28.3211 48.9453 28.5285 45.5226 28.5285H33.9409Z" fill="#6333FB"/>
<path d="M65.8274 11.4551C68.8697 11.4551 71.2552 12.4228 72.7073 14.2891C74.021 15.9481 74.6433 17.8835 74.6433 20.3028C74.6433 25.5216 71.1861 28.7704 65.6545 28.7704C60.1229 28.7704 56.8386 25.5562 56.8386 20.0609C56.8386 14.773 60.3304 11.4551 65.8274 11.4551ZM65.6891 15.0149C62.9233 15.0149 61.575 16.743 61.575 20.1992C61.575 23.4825 63.027 25.2106 65.7928 25.2106C68.524 25.2106 69.9069 23.5171 69.9069 20.0609C69.9069 16.7085 68.4894 15.0149 65.6891 15.0149Z" fill="#6333FB"/>
<path d="M87.7127 24.9341V11.697H92.3454V24.9341H97.3238V11.697H101.956V28.5285H84.9469C81.87 28.5285 80.4525 28.1483 79.3808 26.9732C78.4128 25.9018 77.8596 24.2774 77.8596 22.4111V11.697H82.4923V21.6853C82.4923 23.3443 82.596 23.7936 83.1146 24.2774C83.564 24.7267 84.2901 24.9341 85.2581 24.9341H87.7127Z" fill="#6333FB"/>
<path d="M114.377 11.4551C117.419 11.4551 119.805 12.4228 121.257 14.2891C122.571 15.9481 123.193 17.8835 123.193 20.3028C123.193 25.5216 119.736 28.7704 114.204 28.7704C108.673 28.7704 105.388 25.5562 105.388 20.0609C105.388 14.773 108.88 11.4551 114.377 11.4551ZM114.239 15.0149C111.473 15.0149 110.125 16.743 110.125 20.1992C110.125 23.4825 111.577 25.2106 114.343 25.2106C117.074 25.2106 118.457 23.5171 118.457 20.0609C118.457 16.7085 117.039 15.0149 114.239 15.0149Z" fill="#6333FB"/>
<path d="M127.693 11.697V5.47597H132.325V11.697H136.612V15.2914H132.325V21.4088C132.325 23.1369 132.394 23.6553 132.706 24.1046C133.086 24.6576 133.812 24.9341 134.78 24.9341H136.612V28.5285H133.259C131.323 28.5285 130.078 28.1483 129.179 27.2497C128.038 26.1783 127.693 24.9341 127.693 22.2037V15.2914H124.754V11.697H127.693Z" fill="#6333FB"/>
<path d="M145.697 18.2983H151.367C151.367 15.9135 150.641 15.2914 147.841 15.2914H140.028V11.697H147.841C150.641 11.697 151.264 11.7662 152.37 12.1118C153.857 12.5956 155.067 13.909 155.62 15.637C155.931 16.6048 156 17.2614 156 19.0586V28.5285H146.251C142.655 28.5285 141.791 28.3902 140.754 27.6299C139.509 26.7313 138.818 25.2451 138.818 23.5516C138.818 21.2014 140.062 19.266 141.895 18.6785C142.655 18.4365 144.003 18.2983 145.697 18.2983ZM151.367 21.8927H146.009C144.902 21.8927 144.902 21.8927 144.522 21.9964C143.9 22.1692 143.519 22.7567 143.519 23.4479C143.519 24.5193 144.211 24.9341 146.009 24.9341H151.367V21.8927Z" fill="#6333FB"/>
<path d="M11.8865 7.75745C12.0111 7.68003 12.1252 7.7003 12.2398 7.78826C12.4315 7.93889 12.6494 7.98577 12.8881 7.88781C13.0477 7.82487 13.1886 7.86173 13.2866 8.00657C13.4215 8.21434 13.5924 8.26543 13.8214 8.18221C13.9823 8.12085 14.1111 8.18222 14.221 8.31231C14.2679 8.36972 14.319 8.42633 14.3761 8.48374C14.4696 8.57749 14.5884 8.6183 14.7231 8.59197C14.9472 8.54036 15.1066 8.63438 15.2207 8.81608C15.3408 8.9962 15.502 9.08942 15.7188 9.06914C15.9003 9.04887 16.0201 9.10574 16.1023 9.28113C16.1858 9.46863 16.3468 9.55658 16.5594 9.51577C16.7611 9.47337 16.9121 9.54658 17.0159 9.72196C17.1347 9.92974 17.3004 10.038 17.5488 10.0074C17.7097 9.99136 17.8343 10.0704 17.9223 10.1991C18.0219 10.3445 18.1507 10.3866 18.3117 10.334C18.4773 10.2826 18.6019 10.3032 18.7015 10.4585C18.7792 10.5828 18.9078 10.6355 19.0542 10.6034C19.2766 10.5623 19.4378 10.6252 19.5402 10.8317C19.6137 10.9723 19.732 11.0192 19.8888 10.9926C20.1524 10.952 20.35 11.0911 20.4072 11.3499C20.4535 11.5416 20.5829 11.6562 20.7641 11.7233C20.8684 11.7702 20.9883 11.8068 21.0763 11.874C21.3252 12.0657 21.3718 12.3511 21.2154 12.6263C21.0705 12.896 20.7602 13.0142 20.4743 12.9268C20.3237 12.8799 20.1993 12.7967 20.1008 12.6674C19.9868 12.5168 19.8419 12.4654 19.6443 12.5065C19.4056 12.5592 19.2297 12.4962 19.142 12.2782C19.0993 12.17 19.0071 12.1231 18.893 12.1231C18.8258 12.1186 18.7626 12.1231 18.6955 12.1231C18.5769 12.1289 18.4876 12.0865 18.432 11.9783C18.3585 11.8332 18.2397 11.7705 18.0788 11.786C17.9078 11.801 17.7566 11.7397 17.6734 11.5943C17.4202 11.1379 17.0204 10.8172 16.6468 10.4791C16.1492 10.0382 15.6511 9.60398 15.0394 9.23057C14.2457 8.63463 13.2821 8.38578 12.2803 8.22488C11.9437 8.168 11.6113 8.10479 11.2851 8.02315C11.1811 8.0013 11.0928 7.92362 11.0054 7.85594C10.9746 7.83119 10.9585 7.76377 10.9688 7.72717C10.9788 7.70057 11.0523 7.6745 11.0886 7.68477C11.1969 7.70663 11.3109 7.72716 11.4092 7.77404C11.5749 7.84593 11.7316 7.8512 11.8865 7.75745ZM11.4972 6.23799C11.3889 6.31146 11.2851 6.38282 11.1811 6.46683C10.8178 6.74597 10.4912 7.0783 10.212 7.44144C9.88979 7.93889 9.70381 8.53062 9.69775 9.1629V9.1937C9.69775 9.27113 9.70407 9.34881 9.70987 9.42649C9.71408 9.47337 9.71408 9.51999 9.71988 9.56107C9.73015 9.71802 9.7507 9.86732 9.78179 10.018C10.1753 12.2677 12.3017 13.7461 14.5787 13.5852C15.1071 13.5486 15.6474 13.5283 16.1861 13.5283C16.6779 13.5283 17.1716 13.5428 17.6592 13.5794C17.9958 13.5954 18.3327 13.6262 18.6652 13.6673C19.4791 13.7566 20.2831 13.8854 21.071 14.0623C21.9271 14.254 22.6889 13.5019 22.5599 12.6366C22.5072 12.2985 22.4358 11.9369 22.3257 11.5635C21.787 9.68563 20.7241 8.4266 20.0236 7.75192C19.157 6.9174 18.1159 6.26485 16.9592 5.86062C16.7775 5.79347 16.5902 5.7408 16.4042 5.70551C16.2838 5.67918 16.1656 5.65863 16.0452 5.63651C15.6819 5.56936 15.3147 5.51828 14.9412 5.48141C13.7379 5.36739 12.5032 5.5749 11.4972 6.23799Z" fill="#6333FB"/>
<path d="M25.1751 17.5108C25.2528 17.6348 25.2323 17.7494 25.1443 17.8634C24.9936 18.0551 24.9467 18.2734 25.0447 18.512C25.1077 18.6713 25.0713 18.8119 24.9264 18.9099C24.7186 19.0447 24.667 19.2156 24.7505 19.4445C24.8124 19.6054 24.7505 19.7341 24.6201 19.844C24.5632 19.8908 24.506 19.9419 24.4491 19.9991C24.3553 20.0928 24.3142 20.2111 24.3408 20.3459C24.392 20.57 24.2982 20.7293 24.1167 20.8433C23.9365 20.9637 23.8427 21.1248 23.8635 21.3413C23.8838 21.5227 23.8267 21.6426 23.6509 21.7247C23.4634 21.8082 23.3759 21.9691 23.4168 22.1816C23.4592 22.3836 23.3859 22.5342 23.21 22.638C23.0021 22.7565 22.8936 22.9221 22.9244 23.1707C22.9405 23.3322 22.8617 23.4562 22.7327 23.5441C22.5878 23.6437 22.5454 23.7725 22.5983 23.9334C22.6494 24.099 22.6291 24.2235 22.4737 24.3231C22.3491 24.4008 22.2964 24.5293 22.3283 24.6757C22.3694 24.898 22.3067 25.0591 22.0999 25.1616C21.9593 25.235 21.9126 25.3533 21.939 25.5102C21.9801 25.7736 21.841 25.9711 21.5815 26.0285C21.3897 26.0754 21.2757 26.2041 21.2082 26.3853C21.1613 26.4896 21.1247 26.6094 21.0573 26.6974C20.8655 26.9462 20.58 26.9931 20.3047 26.8364C20.0352 26.6916 19.9167 26.3811 20.0047 26.0956C20.0515 25.945 20.1351 25.8204 20.2636 25.7222C20.4148 25.6082 20.4656 25.4633 20.4246 25.2658C20.3719 25.0273 20.4348 24.8514 20.6532 24.7639C20.7615 24.721 20.8084 24.6291 20.8084 24.5148C20.8126 24.4476 20.8084 24.3847 20.8084 24.3173C20.8026 24.1988 20.845 24.1095 20.9532 24.054C21.0981 23.9805 21.1611 23.8623 21.145 23.7014C21.1305 23.5299 21.1919 23.379 21.3368 23.2955C21.7938 23.0425 22.1141 22.643 22.4524 22.2696C22.8931 21.7721 23.328 21.2742 23.7018 20.6624C24.2974 19.869 24.5466 18.9059 24.7075 17.9047C24.7647 17.5676 24.8274 17.2353 24.9096 16.9093C24.9314 16.8053 25.0091 16.7176 25.0763 16.6296C25.1011 16.5988 25.1685 16.5828 25.2054 16.593C25.2315 16.603 25.2581 16.6765 25.2478 16.7128C25.2257 16.8211 25.2054 16.9354 25.1585 17.0336C25.0869 17.1987 25.0819 17.3557 25.1751 17.5108ZM26.6951 17.121C26.6221 17.0128 26.5502 16.9088 26.4667 16.8047C26.1869 16.4416 25.8545 16.1156 25.4912 15.8359C24.9936 15.5139 24.402 15.3279 23.7695 15.3222H23.7387C23.661 15.3222 23.5835 15.3279 23.5058 15.3337C23.4589 15.3379 23.412 15.3379 23.3696 15.3437C23.2145 15.354 23.0648 15.3748 22.9142 15.4056C20.6632 15.7993 19.1844 17.9247 19.3456 20.201C19.3825 20.7293 19.4027 21.2694 19.4027 21.8079C19.4027 22.2996 19.3883 22.7931 19.3514 23.2805C19.3356 23.6171 19.3047 23.9539 19.2637 24.2862C19.1744 25.0999 19.0453 25.9037 18.868 26.6913C18.6762 27.5477 19.4288 28.3087 20.2942 28.1802C20.6324 28.1276 20.9943 28.0557 21.3673 27.9456C23.2448 27.4071 24.5052 26.3445 25.1806 25.6443C26.0149 24.7779 26.6682 23.7372 27.072 22.5808C27.1397 22.3991 27.1924 22.2119 27.2272 22.026C27.2538 21.9056 27.274 21.7874 27.2959 21.6671C27.3633 21.3044 27.4147 20.9368 27.4511 20.5639C27.5651 19.3605 27.3573 18.1264 26.694 17.1208L26.6951 17.121Z" fill="#6333FB"/>
<path d="M15.5897 30.6109C15.468 30.6928 15.3539 30.6751 15.237 30.5919C15.0394 30.4484 14.82 30.4089 14.5853 30.5145C14.4272 30.5816 14.2852 30.5511 14.1825 30.4091C14.0405 30.2072 13.868 30.1603 13.6422 30.2511C13.4842 30.3183 13.3525 30.2614 13.2395 30.1353C13.1897 30.0797 13.137 30.0241 13.0772 29.9686C12.9816 29.8793 12.8601 29.8411 12.7268 29.8719C12.5061 29.9304 12.342 29.8427 12.2216 29.6657C12.0957 29.4888 11.9318 29.4006 11.7153 29.4285C11.5354 29.4551 11.4137 29.4024 11.3244 29.2296C11.2364 29.045 11.0726 28.9629 10.8615 29.0113C10.6611 29.0595 10.507 28.9924 10.3977 28.8196C10.2715 28.6158 10.1034 28.512 9.85422 28.5515C9.69433 28.5723 9.56683 28.4989 9.4749 28.373C9.37243 28.2311 9.24071 28.1929 9.08266 28.2498C8.91697 28.3087 8.79237 28.2908 8.68884 28.1386C8.60666 28.0175 8.47626 27.9706 8.33138 28.0054C8.11011 28.0552 7.94784 27.9983 7.83667 27.7947C7.76028 27.6572 7.63858 27.6146 7.48343 27.6454C7.22159 27.6952 7.01954 27.5619 6.95342 27.306C6.90073 27.1156 6.76745 27.006 6.58437 26.9446C6.479 26.9007 6.35782 26.8683 6.26826 26.804C6.01222 26.621 5.95663 26.3374 6.1031 26.0577C6.23928 25.7839 6.5467 25.6535 6.83356 25.7328C6.98582 25.7733 7.11332 25.8526 7.21579 25.9785C7.33433 26.1249 7.48211 26.1736 7.67678 26.1249C7.91412 26.0648 8.09272 26.1207 8.18782 26.3355C8.23339 26.4427 8.3269 26.4862 8.44149 26.4833C8.50893 26.4862 8.57189 26.4791 8.63906 26.4762C8.75786 26.4675 8.8469 26.5051 8.90854 26.6123C8.9844 26.7558 9.10611 26.8127 9.26706 26.7924C9.4367 26.7706 9.58896 26.829 9.6772 26.971C9.94642 27.4176 10.3566 27.7265 10.7401 28.0499C11.2527 28.4744 11.7654 28.8931 12.3889 29.2457C13.2015 29.8153 14.1751 30.032 15.1798 30.1577C15.5196 30.2045 15.8534 30.2561 16.1829 30.3272C16.2867 30.3452 16.3776 30.4197 16.4685 30.4842C16.4993 30.5089 16.5167 30.5751 16.508 30.6114C16.4993 30.6377 16.4274 30.667 16.391 30.6567C16.2809 30.6406 16.1669 30.623 16.066 30.579C15.8974 30.5132 15.742 30.5126 15.5897 30.6109ZM16.0294 32.1153C16.136 32.0395 16.2369 31.9631 16.3381 31.8767C16.6908 31.5855 17.0072 31.2431 17.2753 30.8713C17.5796 30.3633 17.7469 29.7658 17.7305 29.1335L17.729 29.1027C17.7261 29.0237 17.7189 28.9463 17.7116 28.8699C17.7042 28.8231 17.7029 28.7762 17.6955 28.7356C17.681 28.5805 17.6544 28.4309 17.6178 28.2816C17.1492 26.0451 14.9751 24.6396 12.7052 24.8766C12.1781 24.9312 11.6394 24.9693 11.1005 24.9867C10.6087 25.0041 10.115 25.0041 9.6261 24.9854C9.28918 24.9809 8.95095 24.9606 8.61825 24.9293C7.80138 24.8695 6.9932 24.7671 6.19977 24.6165C5.33864 24.4537 4.60212 25.2308 4.76043 26.092C4.82313 26.4267 4.90821 26.7869 5.02965 27.1558C5.63157 29.0134 6.73557 30.2372 7.45735 30.8874C8.35193 31.6924 9.4151 32.3112 10.585 32.6757C10.7678 32.7376 10.9566 32.7829 11.1445 32.8134C11.2646 32.8353 11.3844 32.8516 11.5048 32.869C11.8691 32.9235 12.2382 32.9627 12.613 32.9878C13.8198 33.0607 15.0465 32.8124 16.0294 32.1153Z" fill="#6333FB"/>
<path d="M2.63646 21.1951C2.54427 21.0811 2.55006 20.9653 2.62487 20.8407C2.75105 20.6329 2.76976 20.4104 2.64279 20.1863C2.56218 20.0341 2.58088 19.8903 2.71285 19.775C2.90173 19.6154 2.93229 19.4397 2.82244 19.2232C2.74051 19.0721 2.78767 18.9359 2.90305 18.8117C2.95283 18.759 3.00446 18.7005 3.05425 18.6363C3.13486 18.5325 3.16094 18.4093 3.12011 18.2789C3.04082 18.0638 3.11378 17.8926 3.27947 17.7578C3.44517 17.6174 3.51814 17.4462 3.47125 17.2324C3.42884 17.0552 3.47125 16.9296 3.63509 16.8253C3.81106 16.7199 3.87823 16.5504 3.81106 16.3439C3.74521 16.1488 3.79894 15.9908 3.96174 15.8667C4.15219 15.7232 4.23991 15.5444 4.18012 15.3016C4.14482 15.1436 4.20619 15.0104 4.325 14.9079C4.45645 14.792 4.48147 14.659 4.4114 14.5055C4.33975 14.3475 4.34423 14.2211 4.48779 14.1042C4.60027 14.012 4.63689 13.8772 4.58868 13.7371C4.51993 13.5206 4.56208 13.3534 4.75543 13.2246C4.88451 13.1354 4.91638 13.0121 4.87239 12.8604C4.79784 12.604 4.91348 12.3904 5.16373 12.3024C5.34839 12.2324 5.44638 12.0904 5.49038 11.9016C5.52409 11.7934 5.54596 11.6702 5.60154 11.5751C5.76249 11.3041 6.03961 11.2238 6.33096 11.3439C6.61651 11.455 6.77298 11.7492 6.72029 12.0436C6.69237 12.1987 6.6252 12.3319 6.50824 12.4459C6.37337 12.5779 6.33965 12.7269 6.40419 12.9173C6.48479 13.1485 6.44528 13.3316 6.24034 13.4443C6.13655 13.4998 6.10125 13.5983 6.11574 13.7108C6.11864 13.7779 6.13181 13.8398 6.13945 13.907C6.15973 14.0239 6.12917 14.116 6.02828 14.1866C5.89341 14.2759 5.8452 14.4015 5.87998 14.5598C5.91685 14.7283 5.87286 14.8847 5.73957 14.9843C5.31783 15.2934 5.04677 15.728 4.75833 16.1396C4.38058 16.6868 4.00994 17.2345 3.71438 17.8873C3.2181 18.7479 3.08928 19.7347 3.05241 20.7475C3.0366 21.0885 3.01474 21.4253 2.9718 21.7603C2.96469 21.8656 2.89857 21.9622 2.8414 22.0578C2.81954 22.0929 2.755 22.1163 2.71681 22.1105C2.69073 22.1031 2.65543 22.0341 2.66122 21.996C2.6686 21.8864 2.67624 21.7705 2.70969 21.6668C2.76238 21.4938 2.74816 21.3384 2.63646 21.1951ZM1.17552 21.7661C1.26193 21.8651 1.34648 21.9591 1.44184 22.0528C1.76401 22.3778 2.13306 22.6619 2.52688 22.8961C3.05978 23.1536 3.67039 23.2663 4.29839 23.1947L4.32974 23.1918C4.40718 23.1815 4.48331 23.167 4.55918 23.152C4.60607 23.142 4.65164 23.1362 4.69247 23.1259C4.84631 23.0965 4.99304 23.0572 5.13792 23.009C7.32406 22.3428 8.53079 20.0536 8.09404 17.8141C7.99315 17.293 7.90675 16.7602 7.84089 16.2259C7.78109 15.7372 7.7371 15.2466 7.71339 14.7578C7.68732 14.4226 7.67678 14.0829 7.67678 13.7492C7.66519 12.931 7.69574 12.1168 7.77477 11.3136C7.86144 10.4409 7.02217 9.77621 6.17764 10.0106C5.84942 10.1028 5.49828 10.2197 5.14082 10.3737C3.34401 11.1377 2.22263 12.3454 1.63809 13.1227C0.916318 14.0844 0.395004 15.1981 0.134216 16.3945C0.0889077 16.5833 0.0609875 16.775 0.0478164 16.9638C0.0362258 17.0852 0.0304304 17.2066 0.0246351 17.328C0.000927128 17.6956 -0.00486918 18.0675 0.00382374 18.4419C0.0378052 19.6493 0.394741 20.8496 1.17552 21.7661Z" fill="#6333FB"/>
<path d="M11.9761 0.283887C12.6231 0.188822 13.2708 0.0950656 13.9178 0C14.1256 0.992527 14.3337 1.98637 14.5416 2.9789C14.1854 3.03157 14.0598 3.05054 13.7023 3.10478C13.4829 2.44617 13.0801 1.78598 11.9761 0.283887Z" fill="#6333FB"/>
</svg>
